<svg width="36" height="24" viewBox="0 0 36 24" fill="none" xmlns="http://www.w3.org/2000/svg">
<path fill-rule="evenodd" clip-rule="evenodd" d="M0.499966 12C0.499966 12.3315 0.63166 12.6495 0.866081 12.8839C1.1005 13.1183 1.41845 13.25 1.74997 13.25L31.2325 13.25L23.365 21.115C23.2487 21.2312 23.1566 21.3692 23.0937 21.521C23.0308 21.6729 22.9984 21.8356 22.9984 22C22.9984 22.1644 23.0308 22.3271 23.0937 22.479C23.1566 22.6308 23.2487 22.7688 23.365 22.885C23.4812 23.0012 23.6192 23.0934 23.771 23.1563C23.9229 23.2192 24.0856 23.2516 24.25 23.2516C24.4143 23.2516 24.5771 23.2192 24.7289 23.1563C24.8808 23.0934 25.0187 23.0012 25.135 22.885L35.135 12.885C35.2514 12.7689 35.3437 12.631 35.4067 12.4791C35.4698 12.3272 35.5022 12.1644 35.5022 12C35.5022 11.8356 35.4698 11.6728 35.4067 11.5209C35.3437 11.3691 35.2514 11.2311 35.135 11.115L25.135 1.115C25.0187 0.998785 24.8808 0.906593 24.7289 0.843697C24.5771 0.780798 24.4143 0.748426 24.25 0.748426C24.0856 0.748426 23.9229 0.780798 23.771 0.843697C23.6192 0.906593 23.4812 0.998785 23.365 1.115C23.2487 1.23122 23.1566 1.3692 23.0937 1.52105C23.0308 1.67289 22.9984 1.83565 22.9984 2C22.9984 2.16436 23.0308 2.32712 23.0937 2.47896C23.1566 2.63081 23.2487 2.76879 23.365 2.885L31.2325 10.75L1.74997 10.75C1.41845 10.75 1.1005 10.8817 0.866081 11.1161C0.63166 11.3505 0.499966 11.6685 0.499966 12Z" fill="#F7931E"/>
</svg>
