<svg width="36" height="23" viewBox="0 0 36 23" fill="none" xmlns="http://www.w3.org/2000/svg">
<path fill-rule="evenodd" clip-rule="evenodd" d="M35.5 11.5385C35.5 11.207 35.3683 10.889 35.1339 10.6546C34.8995 10.4202 34.5816 10.2885 34.25 10.2885H4.76754L12.635 2.42348C12.7513 2.30726 12.8434 2.16928 12.9063 2.01743C12.9692 1.86559 13.0016 1.70283 13.0016 1.53847C13.0016 1.37412 12.9692 1.21136 12.9063 1.05952C12.8434 0.907668 12.7513 0.769694 12.635 0.653474C12.5188 0.537255 12.3808 0.445064 12.229 0.382167C12.0771 0.319269 11.9144 0.286896 11.75 0.286896C11.5857 0.286896 11.4229 0.319269 11.2711 0.382167C11.1192 0.445064 10.9813 0.537255 10.865 0.653474L0.865037 10.6535C0.748629 10.7696 0.656272 10.9075 0.593256 11.0594C0.53024 11.2113 0.497803 11.3741 0.497803 11.5385C0.497803 11.7029 0.53024 11.8657 0.593256 12.0176C0.656272 12.1694 0.748629 12.3074 0.865037 12.4235L10.865 22.4235C10.9813 22.5397 11.1192 22.6319 11.2711 22.6948C11.4229 22.7577 11.5857 22.7901 11.75 22.7901C11.9144 22.7901 12.0771 22.7577 12.229 22.6948C12.3808 22.6319 12.5188 22.5397 12.635 22.4235C12.7513 22.3073 12.8434 22.1693 12.9063 22.0174C12.9692 21.8656 13.0016 21.7028 13.0016 21.5385C13.0016 21.3741 12.9692 21.2114 12.9063 21.0595C12.8434 20.9077 12.7513 20.7697 12.635 20.6535L4.76754 12.7885H34.25C34.5816 12.7885 34.8995 12.6568 35.1339 12.4224C35.3683 12.1879 35.5 11.87 35.5 11.5385Z" fill="white"/>
</svg>
